<?xml version="1.0" encoding="utf-8"?>
<!-- Generator: Adobe Illustrator 24.0.0, SVG Export Plug-In . SVG Version: 6.00 Build 0)  -->
<svg version="1.1" id="Layer_1" xmlns="http://www.w3.org/2000/svg" xmlns:xlink="http://www.w3.org/1999/xlink" x="0px" y="0px"
	 viewBox="0 0 667.1 256.9" style="enable-background:new 0 0 667.1 256.9;" xml:space="preserve">
<style type="text/css">
	.st0{fill:#FFFFFF;}
	.st1{fill:#7EC499;}
	.st2{fill:#6CBFEA;}
	.st3{fill:#26AC97;}
	.st4{fill:#758BC0;}
	.st5{fill:#627AB2;}
	.st6{fill:#45727F;}
	.st7{fill:#866380;}
	.st8{fill:#674F70;}
	.st9{fill:#544C5B;}
	.st10{fill:#EE9050;}
	.st11{fill:#E46039;}
	.st12{fill:#8A4C3E;}
	.st13{fill:#683E3E;}
	.st14{fill:#553F35;}
	.st15{fill:#F1B653;}
	.st16{fill:#939C4A;}
	.st17{fill:#5E8E4E;}
	.st18{fill:#4B6749;}
	.st19{fill:#534938;}
	.st20{fill:#E67A26;}
	.st21{fill:#94762D;}
	.st22{fill:#6D6C31;}
	.st23{fill:#504630;}
	.st24{fill:#DD5A26;}
	.st25{fill:#94502B;}
	.st26{fill:#6F4B2F;}
	.st27{fill:#8C3E2E;}
	.st28{fill:#703F2D;}
	.st29{fill:#5E372B;}
	.st30{fill:#53372C;}
	.st31{fill:#E57A7C;}
	.st32{fill:#3B3D90;}
	.st33{fill:#CB282D;}
</style>
<g>
	<g>
		<path class="st0" d="M93.3,13.2c-26.6,5-44.2,30.7-39.1,57.4c5,26.6,30.7,44.2,57.4,39.1c26.6-5,44.2-30.7,39.1-57.4
			C145.6,25.6,120,8.1,93.3,13.2"/>
		<path class="st0" d="M30.5,60c-9,25.6,4.5,53.6,30.1,62.6s53.6-4.5,62.6-30.1s-4.5-53.6-30.1-62.6S39.4,34.4,30.5,60"/>
		<path class="st0" d="M39.6,137.8c17.7,20.6,48.7,22.9,69.2,5.2c20.6-17.7,22.9-48.7,5.2-69.3s-48.7-22.9-69.3-5.2
			C24.3,86.2,21.9,117.2,39.6,137.8"/>
		<path class="st0" d="M111.6,168.8c26.7-5,44.2-30.7,39.1-57.4c-5-26.6-30.7-44.2-57.4-39.1c-26.6,5-44.2,30.7-39.1,57.4
			C59.2,156.3,84.9,173.8,111.6,168.8"/>
		<path class="st0" d="M174.4,122c9-25.6-4.5-53.6-30.1-62.6s-53.6,4.5-62.6,30.1s4.5,53.6,30.1,62.6
			C137.4,161,165.4,147.6,174.4,122"/>
		<path class="st0" d="M165.3,44.2C147.6,23.6,116.6,21.3,96,39s-22.9,48.7-5.2,69.2c17.7,20.6,48.7,22.9,69.3,5.2
			C180.6,95.7,183,64.7,165.3,44.2"/>
		<path class="st1" d="M93,29.8c3.3,1.2,6.5,2.7,9.4,4.4c11.1-6.8,24.1-8.7,36.2-6.1C127.5,16,110.6,9.7,93.3,13
			c-10.8,2-20.2,7.5-27.1,15.1C74.8,26.3,84.1,26.7,93,29.8"/>
		<path class="st2" d="M44.8,68.5c2.7-2.3,5.5-4.3,8.5-5.9c-0.3-13,4.5-25.2,12.9-34.4c-16,3.6-29.9,15.1-35.7,31.7
			c-3.7,10.4-3.6,21.3-0.5,31C32.7,82.5,37.6,74.7,44.8,68.5"/>
		<path class="st3" d="M53.3,62.6c9.2-5,19.5-6.8,29.5-5.6c2.9-6.7,7.3-12.9,13.2-18.1c2-1.8,4.2-3.3,6.4-4.7
			c-2.9-1.8-6-3.3-9.4-4.4c-9-3.1-18.2-3.5-26.8-1.6C57.8,37.4,53,49.7,53.3,62.6"/>
		<path class="st4" d="M53.3,119.3C42,113.1,33.8,102.8,30,91c-4.9,15.7-1.9,33.4,9.6,46.8c7.2,8.4,16.6,13.7,26.6,15.9
			c-6-6.5-10.3-14.7-12-24C53.5,126.2,53.3,122.7,53.3,119.3"/>
		<path class="st5" d="M53.3,119.3c0.2-10.4,3.8-20.3,9.9-28.3c-4.4-5.8-7.6-12.8-9.1-20.4c-0.5-2.6-0.8-5.3-0.8-7.9
			c-3,1.6-5.9,3.6-8.5,5.9c-7.2,6.2-12.1,14-14.8,22.5C33.8,102.8,42,113.1,53.3,119.3"/>
		<path class="st6" d="M78.9,77.4C78.7,70.5,80,63.5,82.8,57c-10-1.2-20.3,0.6-29.5,5.6c0.1,2.6,0.3,5.2,0.8,7.9
			c1.5,7.7,4.6,14.6,9.1,20.4C67.4,85.4,72.7,80.8,78.9,77.4"/>
		<path class="st7" d="M102.4,147.6c-8.9-5.4-15.7-13.5-19.6-22.7c-7.3,0.9-14.9,0.2-22.2-2.4c-2.5-0.9-5-2-7.3-3.2
			c-0.1,3.4,0.2,6.9,0.8,10.3c1.8,9.3,6.1,17.5,12,24C78.4,156.4,91.4,154.4,102.4,147.6"/>
		<path class="st8" d="M78.9,104.5c-6.1-3.3-11.5-7.9-15.7-13.6c-6.1,8-9.6,17.9-9.9,28.3c2.3,1.2,4.7,2.3,7.3,3.2
			c7.4,2.6,15,3.3,22.2,2.4C80.1,118.6,78.8,111.6,78.9,104.5"/>
		<path class="st9" d="M78.9,104.5c0.1-4.5,0.9-9,2.3-13.5c-1.4-4.4-2.2-9-2.3-13.6c-6.2,3.4-11.5,8.1-15.7,13.6
			C67.5,96.6,72.8,101.2,78.9,104.5"/>
		<path class="st10" d="M174.9,90.9c-2.7,8.4-7.6,16.3-14.8,22.4c-2.7,2.3-5.5,4.3-8.5,5.9c0.3,13-4.5,25.2-12.9,34.4
			c16-3.6,29.9-15.1,35.7-31.7C178,111.5,178,100.7,174.9,90.9"/>
		<path class="st11" d="M151.5,119.3c-9.2,5-19.5,6.9-29.5,5.6c-2.9,6.8-7.3,13-13.2,18.1c-2,1.7-4.2,3.3-6.4,4.7
			c2.9,1.8,6,3.3,9.4,4.4c9,3.1,18.2,3.5,26.8,1.6C147.1,144.5,151.9,132.3,151.5,119.3"/>
		<path class="st12" d="M82.8,124.9c3.9,9.3,10.7,17.3,19.6,22.7c2.2-1.4,4.4-2.9,6.4-4.7c5.9-5.1,10.3-11.3,13.2-18.1
			c-6.9-0.8-13.6-3.1-19.6-6.8C96.5,121.7,89.8,124,82.8,124.9"/>
		<path class="st13" d="M91.9,109.3c-4.5-1-8.9-2.6-12.9-4.8c-0.2,7.1,1.2,14,3.9,20.4c7-0.9,13.7-3.2,19.6-6.9
			C98.6,115.7,95,112.8,91.9,109.3"/>
		<path class="st14" d="M81.2,91c-1.4,4.5-2.2,9-2.3,13.5c4,2.2,8.4,3.8,12.9,4.8c-0.3-0.4-0.7-0.8-1-1.1
			C86.3,103,83.2,97.1,81.2,91"/>
		<path class="st15" d="M151.5,62.6c11.4,6.2,19.6,16.5,23.3,28.3c4.9-15.7,1.9-33.4-9.6-46.8c-7.2-8.4-16.6-13.7-26.6-15.9
			c6,6.5,10.3,14.7,12.1,24C151.3,55.8,151.6,59.2,151.5,62.6"/>
		<path class="st16" d="M102.4,34.3c8.9,5.4,15.7,13.5,19.6,22.7c7.3-0.9,14.9-0.2,22.3,2.4c2.6,0.9,5,2,7.3,3.2
			c0.1-3.4-0.2-6.9-0.8-10.3c-1.8-9.3-6.1-17.5-12.1-24C126.5,25.6,113.5,27.5,102.4,34.3"/>
		<path class="st17" d="M122,57c-3.9-9.3-10.7-17.3-19.6-22.7c-2.2,1.4-4.4,2.9-6.4,4.7c-5.9,5.1-10.3,11.3-13.2,18.1
			c6.9,0.9,13.6,3.1,19.6,6.8C108.4,60.2,115.1,57.9,122,57"/>
		<path class="st18" d="M78.9,77.4c4-2.1,8.3-3.8,12.8-4.8c3.1-3.4,6.7-6.4,10.6-8.8c-6-3.7-12.7-6-19.6-6.8
			C80.1,63.5,78.8,70.4,78.9,77.4"/>
		<path class="st19" d="M91.8,72.6c-4.6,1-8.9,2.6-12.8,4.8c0.1,4.6,0.9,9.2,2.3,13.6c0.2-0.5,0.3-1,0.5-1.5
			C84,83,87.4,77.4,91.8,72.6"/>
		<path class="st20" d="M151.5,62.6c-0.3,10.4-3.8,20.3-9.9,28.3c4.4,5.8,7.6,12.8,9.1,20.4c0.5,2.7,0.8,5.3,0.8,7.9
			c3-1.6,5.9-3.6,8.5-5.9c7.2-6.2,12.1-14,14.8-22.5C171.1,79.1,162.9,68.8,151.5,62.6"/>
		<path class="st21" d="M125.9,77.4c6.1,3.3,11.5,7.9,15.7,13.6c6.1-8,9.6-17.9,9.9-28.3c-2.3-1.2-4.7-2.3-7.3-3.2
			c-7.4-2.6-15-3.3-22.3-2.4C124.7,63.4,126.1,70.3,125.9,77.4"/>
		<path class="st22" d="M113,72.6c4.5,1,8.9,2.6,12.9,4.8c0.2-7.1-1.2-14-3.9-20.4c-7,0.9-13.6,3.2-19.6,6.8
			C106.3,66.2,109.8,69.1,113,72.6"/>
		<path class="st23" d="M113,72.6c-3.2-3.5-6.7-6.4-10.6-8.7c-3.9,2.4-7.5,5.3-10.6,8.8c0.5-0.1,1-0.2,1.5-0.3
			C100,71,106.7,71.2,113,72.6"/>
		<path class="st24" d="M141.6,91c-4.2,5.5-9.5,10.2-15.7,13.6c0.2,7-1.1,13.9-3.9,20.4c10,1.2,20.3-0.6,29.5-5.6
			c-0.1-2.6-0.3-5.2-0.8-7.9C149.2,103.7,146.1,96.8,141.6,91"/>
		<path class="st25" d="M125.9,77.4c-0.1,4.5-0.9,9-2.3,13.5c1.4,4.4,2.2,9,2.3,13.6c6.2-3.4,11.6-8,15.7-13.6
			C137.4,85.3,132,80.7,125.9,77.4"/>
		<path class="st26" d="M123.7,90.9c1.4-4.5,2.2-9,2.3-13.5c-4-2.2-8.4-3.8-12.9-4.8c0.4,0.4,0.7,0.8,1,1.2
			C118.5,78.9,121.7,84.8,123.7,90.9"/>
		<path class="st27" d="M125.9,104.5c-4,2.2-8.2,3.8-12.8,4.8c-3.1,3.4-6.7,6.4-10.7,8.8c6,3.7,12.7,6,19.6,6.8
			C124.8,118.4,126.1,111.5,125.9,104.5"/>
		<path class="st28" d="M123.2,92.4c-2.3,6.5-5.8,12.2-10.1,16.9c4.6-1,8.9-2.6,12.8-4.8c-0.1-4.6-0.9-9.2-2.3-13.6
			C123.5,91.4,123.4,91.9,123.2,92.4"/>
		<path class="st29" d="M91.9,109.3c3.2,3.5,6.7,6.4,10.6,8.7c3.9-2.4,7.5-5.3,10.7-8.8c-0.5,0.1-1,0.2-1.5,0.3
			C104.8,110.9,98.2,110.7,91.9,109.3"/>
		<path class="st30" d="M123.7,90.9c-1.9-6.1-5.1-12-9.6-17.2c-0.3-0.4-0.7-0.8-1-1.2c-6.3-1.4-13-1.6-19.7-0.3
			c-0.5,0.1-1,0.2-1.5,0.3c-4.3,4.8-7.8,10.4-10.1,16.9c-0.2,0.5-0.3,1-0.5,1.5c1.9,6.1,5.1,12,9.6,17.2c0.3,0.4,0.7,0.8,1,1.1
			c6.3,1.4,13,1.6,19.7,0.3c0.5-0.1,1-0.2,1.5-0.3c4.3-4.7,7.8-10.4,10.1-16.9C123.4,91.9,123.5,91.4,123.7,90.9"/>
		<path class="st31" d="M98.2,153.8c0-1.2,0-2.5,0-3.8c-10.1,4.9-21.4,6.1-32,3.7c7,7.6,16.3,13,26.6,15
			C96.3,165.2,98.3,160.7,98.2,153.8"/>
		<path class="st31" d="M111.8,152.1c-1.8-0.6-3.5-1.4-5.1-2.1c-0.1,1.3-0.1,2.6-0.1,3.8c0,7.2,2,11.6,5.2,15
			c10.7-2.1,20-7.5,26.9-15C130,155.6,120.8,155.2,111.8,152.1"/>
		<path class="st0" d="M122.8,125.2c7.2-5.4,13.8-9.6,14.2-19.1c-2.5,15.3-26.3,20.6-33.3,30.7c-1.6-1.2-3-3.7-4.3-6.9
			c-1.2-3.9-1.2-5.9-0.5-7.6c5.2-14.4,22.7-15.1,17.1-37c4.6,21.8-12.9,20-19.6,35.6c-3.5-11.6-7.2-25.7-14.5-29.5
			c6.4,3.4,13.4,27,15.6,47.9c-5.1-3.1-10.7-5.7-16.3-7.6c-2.8-4.8-3.2-16.1-4.8-18.7c1.5,6.5,0.4,10.4,1.9,17.7
			c-7.3-2.3-14.4-3.5-20.2-3.6c21.1,4.1,38.8,12.8,40.2,22c0.1,1.6,0.1,3.2,0,4.7c0.1,6.9-2,11.4-5.4,14.9c6,1.2,12.3,1.3,18.7,0.1
			l0.3-0.1c-3.2-3.4-5.2-7.8-5.2-15c0-4.2,0.1-8.8,2.5-13.5c2.7-5.3,6.3-9,10-12.1c6.2-2.3,23,0.4,26.6-3.1
			C139.3,127.1,131.4,124.7,122.8,125.2"/>
	</g>
	<g>
		<path class="st32" d="M208.7,29.8h16.2c9.8,0,16.6,3.4,16.6,12.8c0,7.2-5.1,9.4-9.3,10.6c4.5,0.9,10.6,3.6,10.6,11.6
			c0,9.3-6.6,13.3-17.1,13.3h-16.9L208.7,29.8L208.7,29.8z M225,50.5c4.8,0,7-1.6,7-6.3v-1.1c0-4.5-2.4-6.1-7.9-6.1H218v13.5H225
			L225,50.5z M225,71c5.6,0,7.9-1.8,7.9-6.6V63c0-4.9-2.2-6.5-7.6-6.5h-7.1V71H225z M252.2,29.8h12.2l7.5,28.7l2.1,15.7l2.3-15.7
			l7.8-28.7h12.7V78h-9.3V59.2l1.8-25.3L285.5,52l-7.1,26.1h-9.7l-6.8-25.8l-3.6-18.4l1.7,25.4V78h-7.7L252.2,29.8L252.2,29.8z
			 M308.8,29.8h9.4v40.9h18.3V78h-27.7L308.8,29.8L308.8,29.8z M364.5,29.8h12.2l7.6,28.7l2.1,15.7l2.3-15.7l7.8-28.7h12.8V78H400
			V59.2l1.8-25.3L398,52l-7.1,26.1h-9.7l-6.8-25.8l-3.6-18.4l1.7,25.4V78h-7.7L364.5,29.8L364.5,29.8z M445.9,29.8h9.5V78h-6.2
			l-2.2-5l-3.1,4.5c-1.4,0.5-4.3,1.5-8.3,1.5c-9,0-14.8-5.1-14.8-19.1V29.8h9.4v32.4c0,7.5,2.1,9.9,7.3,9.9c4,0,6.4-1,8.4-2.2
			L445.9,29.8L445.9,29.8z M467.3,29.8h10.2l13.2,25.9l5.4,14.9l-2.2-17.8v-23h8.1V78h-9.8l-13.9-26.8l-5-14.5l2.1,17.4V78h-8.2
			L467.3,29.8L467.3,29.8z M510.7,76.7l0.8-7c2.5,0.9,4,1.6,6.3,1.6c3,0,4.7-1.6,4.7-8.4V29.8h9.5v31.5c0,10.4-2.7,17.8-11.9,17.8
			C515.5,79.1,512.5,77.9,510.7,76.7z M547.8,78.1h-8.2l15.7-48.2h8.9l15.4,48.2h-9.9l-2.4-8.5h-17L547.8,78.1z M560.9,47.5
			l-1.7-9.1l-2.1,9.1l-4.9,15.9h13.3L560.9,47.5z M587.4,29.8h9.4v40.9h18.3V78h-27.7V29.8L587.4,29.8z M248.9,102.8h9.5V151h-6.2
			l-2.2-5l-3.1,4.5c-1.4,0.5-4.3,1.5-8.3,1.5c-9,0-14.8-5.1-14.8-19.1v-30.2h9.4v32.4c0,7.6,2.1,9.9,7.3,9.9c4,0,6.4-1,8.5-2.2
			L248.9,102.8L248.9,102.8z M270.3,102.8h10.2l13.2,25.9l5.4,14.9l-2.2-17.8v-23h8.2V151h-9.9l-13.9-26.8l-5-14.5l2.1,17.3v23.9
			h-8.1L270.3,102.8L270.3,102.8z M317.5,102.8h9.4V151h-9.4V102.8z M335.3,102.8h9.8l8.6,28.8l2,12.7l2.1-12.7l8.4-28.8h8.7
			L359.4,151h-8.3L335.3,102.8z M382.8,102.8H411v7.6h-18.8V123h15.9v7h-15.9v13.6h20.1v7.3h-29.5L382.8,102.8L382.8,102.8z
			 M448.9,135.4l8.2,15.6h-9.9l-9.3-18.5h-6.6V151h-9.4v-48.2h16.3c11.5,0,17.6,5,17.6,15.1c0,6.6-2.9,12.4-11.9,13.7L448.9,135.4z
			 M437.7,126.5c5.9,0,8.2-2.2,8.2-7.7v-1.5c0-5.7-2.4-7.3-8.3-7.3h-6.2v16.5H437.7z M463.3,148.8l1.6-6.7c4.1,1.7,7.5,3,12,3
			c6,0,8.6-1.5,8.6-6.7c0-4.3-1.7-5.5-8.8-7.2c-8.4-1.9-13-5-13-14.8c0-9.3,5.5-14.5,15.8-14.5c6.1,0,9.8,1,12.9,2.4l-1.1,7.1
			c-3.9-1.2-6.3-1.9-11.1-1.9c-5.6,0-7.9,1.5-7.9,5.8s1.3,5.4,8.4,7.1c8.6,1.9,13.8,5,13.8,14.6c0,9.9-5.2,15-16.5,15
			C470.8,152.1,466.7,150.5,463.3,148.8z M504.3,102.8h9.4V151h-9.4V102.8z M522.4,110.4v-7.6h33.8v7.6H544v40.7h-9.5v-40.7H522.4z
			 M574.7,134l-14.6-31.2h10l7.5,18.1l2.3,10.1l2.1-10.1l7.3-18.1h8.7l-13.8,30.8v17.5h-9.4L574.7,134L574.7,134z M614.1,104.8v14
			h2.5v-14h4.1v-2H610v2H614.1z M623.3,118.8h2.1v-7.9l-0.4-7.1l1.1,5.3l2.8,9.8h2.6l2.9-9.9l1.1-5.1l-0.4,7.1v8h2.4v-16h-3.4
			l-3.1,10.6l-0.7,4.4l-0.7-4.4l-3-10.6h-3.2L623.3,118.8L623.3,118.8z"/>
	</g>
	<g>
		<path d="M54.1,191.6h4.4l12.7,34.5h-5L63,217H49.2l-3.3,9.1h-4.7L54.1,191.6z M61.6,213l-5.5-15.6l0,0L50.6,213H61.6z"/>
		<path d="M408.1,191.7h4.7v34.4h-4.7V191.7z"/>
		<path d="M420.3,191.6h4.7l16.8,26.3h0.1v-26.3h4.5v34.5h-4.6l-16.9-26.5h-0.1v26.5h-4.5V191.6z"/>
		<path d="M453.8,191.7h4.7v34.4h-4.7V191.7z"/>
		<path d="M474.3,195.7h-10.8v-4.1h26.2v4.1H479v30.4h-4.7V195.7L474.3,195.7z"/>
		<path d="M494.7,191.7h4.7v34.4h-4.7V191.7z"/>
		<path d="M517,191.6h4.4l12.7,34.5h-5l-3.2-9.1h-13.8l-3.3,9.1h-4.7L517,191.6z M524.6,213l-5.5-15.6l0,0l-5.6,15.6H524.6z"/>
		<path d="M543.2,195.7h-10.8v-4.1h26.2v4.1H548v30.4h-4.7L543.2,195.7L543.2,195.7z"/>
		<path d="M563.7,191.7h4.7v34.4h-4.7V191.7z"/>
		<path d="M572.5,191.7h4.9l8.9,27.9l0,0l9-27.9h4.9l-11.6,34.6h-4.7L572.5,191.7z"/>
		<path d="M604.3,191.6H627v4.2h-18v10.5h15.3v4.1H609v11.4h18.1v4.2h-22.8V191.6L604.3,191.6z"/>
	</g>
	<g>
		<g>
			<g>
				<polygon class="st33" points="109.7,191.4 109.7,204 95.3,204 95.3,191.4 86.1,191.4 86.1,225.4 95.3,225.4 95.3,211.6 
					109.7,211.6 109.7,225.4 118.9,225.4 118.9,191.4 				"/>
			</g>
			<g>
				<path class="st33" d="M139.3,190.4c-9.3,0-16.8,8-16.8,17.8S130,226,139.3,226c7.2,0,14.1-4.8,16.5-11.4h-0.1h-9.9
					c-1.6,4.2-5.7,4.1-5.7,4.1c-7.8,0-8.8-7.7-8.8-7.7h24.6l0,0c0.1-0.9,0.2-1.8,0.2-2.7C156.2,198.4,148.6,190.4,139.3,190.4z
					 M131.5,204.7c1.1-4.2,4.2-7.3,7.7-7.3c3.6,0,6.6,3,7.7,7.3H131.5z"/>
			</g>
			<g>
				<path class="st33" d="M159.9,225h9.5v-17.4c0,0-0.8-10.3,11-8.6v-7.8c0,0-11.6-2.1-16.4,3.9c0,0-3.9,2.7-4.1,10.1V225L159.9,225
					z"/>
			</g>
			<g>
				<path class="st33" d="M199,191c-9.4,0-17,7.9-17,17.5c0,9.7,7.6,17.5,17,17.5s17-7.9,17-17.5S208.4,191,199,191z M199,218.8
					c-4.4,0-8-4.4-8-10.4s3.6-10,8-10s8,4,8,10C207,214.3,203.4,218.8,199,218.8z"/>
			</g>
		</g>
		<g>
			<g>
				<path class="st33" d="M231.2,213.7v-10.4c0-8.4,6.8-12.6,14.4-12.6c6.6,0,14,3.1,14,11.1v1.2h-8.1v-0.7c0-3.5-3.1-4.8-5.7-4.8
					c-3,0-6,1.6-6,5.5v10.5c0,3.5,2.5,5.7,6,5.7c3.2,0,5.6-1.4,5.6-5v-0.9h-6.9V207h15.1v7.9c0,7.9-7.2,11.2-13.8,11.2
					C238.2,226,231.2,222.2,231.2,213.7z"/>
			</g>
			<g>
				<path class="st33" d="M264.3,191.2h15c7.8,0,12.2,4.5,12.2,10.8c0,4.2-2,8.2-6.4,10.1l7.8,13.3h-9.3l-6.8-12.1h-3.9v12.1h-8.6
					L264.3,191.2L264.3,191.2L264.3,191.2z M278.1,207c3.1,0,5-1.8,5-4.6c0-2.9-1.9-4.5-5-4.5h-5.3v9.1H278.1z"/>
			</g>
			<g>
				<path class="st33" d="M295.9,213.5v-9.9c0-8.7,7.1-12.9,14.4-12.9c7.6,0,14.7,4.1,14.7,12.9v9.5c0,8.9-7.3,12.9-14.5,12.9
					C302.8,226,295.9,222.3,295.9,213.5z M316.4,213.3v-10.1c0-3.6-2.8-5.6-6-5.6c-3.1,0-5.9,1.6-5.9,5.6v10c0,3.6,2.5,5.7,6,5.7
					C313.5,218.9,316.4,217.2,316.4,213.3z"/>
			</g>
			<g>
				<path class="st33" d="M329.8,213.3v-22h8.5v21.5c0,3.8,2,6.2,5.8,6.2c3.6,0,5.7-2.2,5.7-6.2v-21.5h8.4V213c0,8.5-6.3,13-14.3,13
					C335.2,226,329.8,221.9,329.8,213.3z"/>
			</g>
			<g>
				<path class="st33" d="M363.9,191.2h15.5c7.6,0,11.9,4.6,11.9,11c0,5.6-3.5,11.4-11.8,11.4h-7v11.8h-8.6V191.2z M378,207
					c3.1,0,5-1.8,5-4.6c0-2.9-2-4.5-5-4.5h-5.5v9.1H378z"/>
			</g>
		</g>
	</g>
</g>
</svg>
