<svg width="407" height="375" viewBox="0 0 407 375" fill="none" xmlns="http://www.w3.org/2000/svg">
<g clip-path="url(#clip0)">
<path d="M166.367 375V341.898C140.276 341.898 119.059 322.533 119.059 298.721C119.059 274.908 140.276 255.544 166.367 255.544V223.161H100.255L105.88 208.741C106.781 206.453 107.232 204.039 107.232 201.572C107.232 189.671 96.6174 179.984 83.5777 179.984C70.538 179.984 59.9236 189.671 59.9236 201.572C59.9236 204.039 60.3738 206.453 61.275 208.741L66.9 223.161H0C5.86857 303.824 77.9858 369.644 166.367 375Z" fill="#485D95"/>
<path d="M83.5777 158.396C109.669 158.396 130.886 177.76 130.886 201.572H166.367V141.234L182.167 146.368C196.732 151.101 213.663 140.37 213.675 126.013C213.663 111.645 196.743 100.83 182.167 105.658L166.367 110.791V51C77.9858 56.3561 5.86857 120.909 0 201.572H36.2696C36.2696 177.76 57.4864 158.396 83.5777 158.396Z" fill="#485D95"/>
<path d="M355 223.161H320.118C320.118 246.974 298.901 266.338 272.81 266.338C246.719 266.338 225.502 246.974 225.502 223.161H190.021V283.499L174.221 278.366C159.599 273.569 142.701 284.353 142.713 298.721C142.701 313.089 159.61 323.872 174.221 319.076L190.021 313.942V375C278.402 369.644 349.131 303.824 355 223.161Z" fill="#485D95"/>
<path d="M358.934 93.623V49.6777H311.238C311.238 25.4412 289.848 5 263.543 5C237.238 5 215.848 25.4412 215.848 49.6777H192V82.6367C218.305 82.6367 239.695 102.345 239.695 126.582C239.695 150.819 218.305 170.527 192 170.527V203.486H258.653L252.982 218.163C252.073 220.492 251.619 222.948 251.619 225.459C251.619 237.572 262.32 247.432 275.467 247.432C288.613 247.432 299.314 237.572 299.314 225.459C299.314 222.948 298.861 220.492 297.952 218.163L292.281 203.486H358.934V181.514C385.238 181.514 407.424 161.805 407.424 137.568C407.424 113.332 385.238 93.623 358.934 93.623Z" fill="#485D95"/>
</g>
<defs>
<clipPath id="clip0">
<rect width="407" height="375" fill="white"/>
</clipPath>
</defs>
</svg>
